<svg width="20" height="20" viewBox="0 0 20 20" fill="none" xmlns="http://www.w3.org/2000/svg">
<path d="M3.33337 10.0004V12.1205C3.33337 14.8247 3.33337 16.1768 4.07177 17.0926C4.22094 17.2776 4.38947 17.4462 4.57448 17.5953C5.4903 18.3337 6.84239 18.3337 9.54654 18.3337C10.1345 18.3337 10.4285 18.3337 10.6977 18.2387C10.7537 18.2189 10.8085 18.1962 10.8621 18.1706C11.1197 18.0474 11.3275 17.8396 11.7433 17.4238L15.6904 13.4767C16.1721 12.995 16.413 12.7541 16.5399 12.4478C16.6667 12.1416 16.6667 11.8009 16.6667 11.1197V8.33374C16.6667 5.19101 16.6667 3.61967 15.6904 2.64335C14.8078 1.76072 13.4388 1.67603 10.8621 1.66791M10.8334 17.9171V17.5004C10.8334 15.1433 10.8334 13.9648 11.5656 13.2326C12.2979 12.5004 13.4764 12.5004 15.8334 12.5004H16.25" stroke="white" stroke-width="2.5" stroke-linecap="round" stroke-linejoin="round"/>
<path d="M10 4.99959H3.33337M6.66671 1.66626V8.33293" stroke="white" stroke-width="2.5" stroke-linecap="round" stroke-linejoin="round"/>
</svg>
