<svg width="22" height="22" viewBox="0 0 22 22" fill="none" xmlns="http://www.w3.org/2000/svg">
<path d="M19.25 2.75L11.9166 10.5417" stroke="white" stroke-width="2.66667" stroke-linecap="round" stroke-linejoin="round"/>
<path d="M8.65859 10.1616C6.38494 11.0337 4.56747 10.8841 2.75 10.1645C3.20887 16.0701 5.96213 18.3415 9.63316 19.25C9.63316 19.25 12.3989 17.2942 12.7976 12.6568C12.8408 12.1545 12.8624 11.9035 12.758 11.6205C12.6535 11.3375 12.4485 11.1346 12.0385 10.7287C11.3642 10.0611 11.027 9.72729 10.6268 9.64369C10.2267 9.56018 9.70402 9.76066 8.65859 10.1616Z" stroke="white" stroke-width="2.66667" stroke-linecap="round" stroke-linejoin="round"/>
<path d="M4.125 15.0759C4.125 15.0759 6.41667 15.5179 8.70833 13.75" stroke="white" stroke-width="2.66667" stroke-linecap="round" stroke-linejoin="round"/>
<path d="M7.79167 6.64583C7.79167 7.27866 7.27866 7.79167 6.64583 7.79167C6.013 7.79167 5.5 7.27866 5.5 6.64583C5.5 6.013 6.013 5.5 6.64583 5.5C7.27866 5.5 7.79167 6.013 7.79167 6.64583Z" stroke="white" stroke-width="2.66667"/>
<path d="M10.0834 3.66669V3.75835" stroke="white" stroke-width="2.66667" stroke-linecap="round" stroke-linejoin="round"/>
</svg>
