<svg width="20" height="20" viewBox="0 0 20 20" fill="none" xmlns="http://www.w3.org/2000/svg">
<path d="M11.1958 5.83334L5.96596 11.0633M5.96596 11.0633L4.02273 13.0064C3.27141 13.7578 2.89574 14.1334 2.69787 14.6112C2.5 15.0888 2.5 15.6201 2.5 16.6827V17.5H3.31735C4.37988 17.5 4.91115 17.5 5.38886 17.3022C5.86657 17.1043 6.24223 16.7286 6.99356 15.9773L11.9076 11.0633M5.96596 11.0633H11.9076M11.9076 11.0633L14.1667 8.80418" stroke="white" stroke-width="2.5" stroke-linecap="round" stroke-linejoin="round"/>
<path d="M16.0072 6.99057L17.35 8.33333M16.0072 6.99057L16.7254 6.27235C16.9691 6.02859 17.091 5.90671 17.1758 5.78774C17.608 5.18063 17.608 4.36627 17.1758 3.75916C17.091 3.6402 16.9691 3.51831 16.7254 3.27456C16.4816 3.03081 16.3598 2.90891 16.2408 2.82421C15.6337 2.39193 14.8193 2.39193 14.2122 2.82421C14.0933 2.90891 13.9714 3.03079 13.7276 3.27456L13.0094 3.99277M16.0072 6.99057L13.0094 3.99277M13.0094 3.99277L11.6666 2.65001" stroke="white" stroke-width="2.5" stroke-linecap="round" stroke-linejoin="round"/>
</svg>
