<svg width="20" height="20" viewBox="0 0 20 20" fill="none" xmlns="http://www.w3.org/2000/svg">
<path d="M12.5 17.5008H7.5" stroke="white" stroke-width="2.5" stroke-linecap="round" stroke-linejoin="round"/>
<path d="M9.99996 2.5V17.5007M9.99996 2.5C11.1561 2.5 12.6412 2.52545 13.8236 2.64707C14.3237 2.69849 14.5738 2.72421 14.795 2.81492C15.2555 3.00357 15.6265 3.41718 15.7661 3.89733C15.8333 4.12817 15.8333 4.39159 15.8333 4.91845M9.99996 2.5C8.84379 2.5 7.35868 2.52545 6.1763 2.64707C5.67621 2.69849 5.42616 2.72421 5.20484 2.81492C4.74449 3.00357 4.37343 3.41718 4.23377 3.89733C4.16663 4.12817 4.16663 4.39159 4.16663 4.91845" stroke="white" stroke-width="2.5" stroke-linecap="round"/>
</svg>
